<svg width="49" height="48" viewBox="0 0 49 48" fill="none" xmlns="http://www.w3.org/2000/svg">
<path d="M44.1364 0H4.86364C2.45273 0 0.5 1.95273 0.5 4.36364V43.6364C0.5 46.0473 2.45273 48 4.86364 48H26.6818V28.3636H20.1364V21.8182H26.6818V18.3033C26.6818 11.6487 29.924 8.72727 35.4549 8.72727C38.1036 8.72727 39.5044 8.92364 40.1676 9.01309V15.2727H36.3953C34.0476 15.2727 33.2273 16.512 33.2273 19.0211V21.8182H40.1087L39.1749 28.3636H33.2273V48H44.1364C46.5473 48 48.5 46.0473 48.5 43.6364V4.36364C48.5 1.95273 46.5451 0 44.1364 0Z" fill="url(#paint0_linear_6_59)"/>
<defs>
<linearGradient id="paint0_linear_6_59" x1="24.5" y1="0" x2="24.5" y2="48" gradientUnits="userSpaceOnUse">
<stop stop-color="#007AFF"/>
<stop offset="1" stop-color="#014C9D"/>
</linearGradient>
</defs>
</svg>
