<svg width="48" height="48" viewBox="0 0 48 48" fill="none" xmlns="http://www.w3.org/2000/svg">
<path d="M24 0C10.746 0 0 10.746 0 24C0 28.5024 1.26468 32.7001 3.42188 36.3008L0.214844 48L12.1641 44.8633C15.6587 46.8501 19.693 48 24 48C37.254 48 48 37.254 48 24C48 10.746 37.254 0 24 0ZM15.7852 12.8047C16.1752 12.8047 16.5759 12.8023 16.9219 12.8203C17.3499 12.8303 17.8157 12.8617 18.2617 13.8477C18.7917 15.0197 19.9457 17.9598 20.0938 18.2578C20.2418 18.5558 20.3466 18.9069 20.1406 19.2969C19.9446 19.6969 19.8427 19.939 19.5547 20.293C19.2567 20.637 18.9302 21.0642 18.6602 21.3242C18.3622 21.6222 18.0544 21.949 18.3984 22.543C18.7424 23.137 19.9371 25.0842 21.7031 26.6562C23.9731 28.6842 25.8884 29.3075 26.4844 29.6055C27.0804 29.9035 27.4255 29.857 27.7695 29.457C28.1235 29.067 29.2563 27.7288 29.6562 27.1328C30.0462 26.5368 30.4444 26.6399 30.9844 26.8359C31.5324 27.0319 34.4548 28.4715 35.0508 28.7695C35.6468 29.0675 36.0375 29.215 36.1875 29.457C36.3415 29.707 36.3417 30.8972 35.8477 32.2852C35.3537 33.6712 32.9278 35.0115 31.8398 35.1055C30.7418 35.2075 29.7171 35.599 24.7031 33.625C18.6551 31.243 14.841 25.0484 14.543 24.6484C14.245 24.2584 12.1211 21.4278 12.1211 18.5078C12.1211 15.5778 13.6573 14.1429 14.1953 13.5469C14.7433 12.9509 15.3852 12.8047 15.7852 12.8047Z" fill="url(#paint0_linear_7_58)"/>
<defs>
<linearGradient id="paint0_linear_7_58" x1="24" y1="0" x2="-3.17891e-07" y2="40" gradientUnits="userSpaceOnUse">
<stop stop-color="#58C823"/>
<stop offset="1" stop-color="#58C823" stop-opacity="0.66"/>
</linearGradient>
</defs>
</svg>
